<?xml version="1.0" encoding="UTF-8" standalone="no"?>
<!-- Created with Inkscape (http://www.inkscape.org/) -->

<svg
   width="32"
   height="32"
   viewBox="0 0 8.4666665 8.4666666"
   version="1.1"
   id="svg5"
   xmlns="http://www.w3.org/2000/svg"
   xmlns:svg="http://www.w3.org/2000/svg">
  <defs
     id="defs2" />
  <g
     id="layer1">
    <rect
       style="fill:#a02c2c;stroke-width:0.264583"
       id="rect3822"
       width="9.4588547"
       height="9.3927088"
       x="-0.42994797"
       y="-0.46302083" />
    <path
       style="fill:#008000;stroke-width:0.264583"
       d="m -0.07576644,-0.10084161 c 0.66085115,0.35490018 1.62835004,-0.0626249 2.84762264,0 2.1288751,0.27765228 1.810652,0 2.715978,0 1.3434005,0.28122564 1.433415,0.04635122 2.0117201,0.01253758 0.5642436,0.07205673 0.817629,0.02958674 1.0719527,-0.01253758 V 1.1986227 C 8.0721415,1.1158544 7.7014585,1.111062 6.8791666,1.2236979 c -0.9577893,-0.1058855 -0.4650613,-0.1461776 -1.6040365,0 -0.5532608,-0.059793 -0.3302149,-0.2510481 -1.8851562,0 -0.722092,0 -0.7574968,-0.29827671 -2.166276,0 -0.64295308,0.00929 -0.73805912,-0.1138381 -1.2841159,0.00627 z"
       id="path3878" />
  </g>
</svg>
